<svg xmlns="http://www.w3.org/2000/svg" viewBox="0 0 64 64">
  <defs>
    <linearGradient id="g1" x1="0%" y1="0%" x2="100%" y2="100%">
      <stop offset="0%" stop-color="#6c5ce7"/>
      <stop offset="100%" stop-color="#00cec9"/>
    </linearGradient>
    <linearGradient id="g2" x1="100%" y1="0%" x2="0%" y2="100%">
      <stop offset="0%" stop-color="#fd79a8"/>
      <stop offset="100%" stop-color="#6c5ce7"/>
    </linearGradient>
  </defs>
  <!-- Left wing -->
  <path d="M30 20 Q18 8 8 16 Q2 22 8 32 Q14 40 30 36 Z" fill="url(#g1)" opacity="0.9"/>
  <path d="M30 36 Q14 40 10 48 Q8 54 14 56 Q22 56 30 44 Z" fill="url(#g2)" opacity="0.85"/>
  <!-- Right wing -->
  <path d="M34 20 Q46 8 56 16 Q62 22 56 32 Q50 40 34 36 Z" fill="url(#g1)" opacity="0.9"/>
  <path d="M34 36 Q50 40 54 48 Q56 54 50 56 Q42 56 34 44 Z" fill="url(#g2)" opacity="0.85"/>
  <!-- Body -->
  <ellipse cx="32" cy="34" rx="3" ry="14" fill="#2d3436"/>
  <!-- Antennae -->
  <line x1="31" y1="22" x2="26" y2="14" stroke="#2d3436" stroke-width="1.5" stroke-linecap="round"/>
  <line x1="33" y1="22" x2="38" y2="14" stroke="#2d3436" stroke-width="1.5" stroke-linecap="round"/>
  <circle cx="26" cy="13" r="1.5" fill="#6c5ce7"/>
  <circle cx="38" cy="13" r="1.5" fill="#00cec9"/>
</svg>
